<svg width="15" height="15" viewBox="0 0 15 15" fill="none" xmlns="http://www.w3.org/2000/svg">
<path d="M10.5781 7.5L14.4844 11.4453C14.9922 11.9141 14.9922 12.6953 14.4844 13.1641L13.625 14.0234C13.1562 14.5312 12.375 14.5312 11.9062 14.0234L8 10.1172L4.05469 14.0234C3.58594 14.5312 2.80469 14.5312 2.33594 14.0234L1.47656 13.1641C0.96875 12.6953 0.96875 11.9141 1.47656 11.4453L5.38281 7.5L1.47656 3.59375C0.96875 3.125 0.96875 2.34375 1.47656 1.875L2.33594 1.01562C2.80469 0.507812 3.58594 0.507812 4.05469 1.01562L8 4.92188L11.9062 1.01562C12.375 0.507812 13.1562 0.507812 13.625 1.01562L14.4844 1.875C14.9922 2.34375 14.9922 3.125 14.4844 3.59375L10.5781 7.5Z" fill="#7B1F1F"/>
</svg>
