<svg width="45" height="33" viewBox="0 0 45 33" fill="none" xmlns="http://www.w3.org/2000/svg">
<path d="M43.2266 11.2487C43.5651 10.9948 44.0729 11.2487 44.0729 11.6719V28.9375C44.0729 31.2227 42.2109 33 40.0104 33H4.80208C2.51693 33 0.739582 31.2227 0.739582 28.9375V11.6719C0.739582 11.2487 1.16276 10.9948 1.5013 11.2487C3.44792 12.7721 5.90234 14.6341 14.5352 20.8971C16.3125 22.1667 19.3594 24.9596 22.4062 24.9596C25.3685 24.9596 28.5 22.1667 30.1927 20.8971C38.8255 14.6341 41.2799 12.7721 43.2266 11.2487ZM22.4062 22.1667C20.375 22.2513 17.582 19.7122 16.1432 18.6966C4.88672 10.5716 4.04036 9.80989 1.5013 7.77864C0.993488 7.4401 0.739582 6.84765 0.739582 6.17057V4.5625C0.739582 2.36198 2.51693 0.499998 4.80208 0.499998H40.0104C42.2109 0.499998 44.0729 2.36198 44.0729 4.5625V6.17057C44.0729 6.84765 43.7344 7.4401 43.2266 7.77864C40.6875 9.80989 39.8411 10.5716 28.5846 18.6966C27.1458 19.7122 24.3529 22.2513 22.4062 22.1667Z" fill="#7B1F1F"/>
</svg>
