<svg width="50" height="39" viewBox="0 0 50 39" fill="none" xmlns="http://www.w3.org/2000/svg">
<path d="M24.7292 10.694C24.8984 10.5247 25.1523 10.4401 25.4062 10.4401C25.5755 10.4401 25.8294 10.5247 25.9987 10.694L41.6563 23.474V37.3542C41.6563 38.1159 40.9792 38.7083 40.3021 38.7083H30.7383C30.0612 38.7083 29.3841 38.1159 29.3841 37.3542V29.2292C29.3841 28.5521 28.7917 27.875 28.0299 27.875H22.6133C21.9362 27.875 21.2591 28.5521 21.2591 29.2292V37.3542C21.2591 38.1159 20.6667 38.7083 19.9896 38.7083H10.5104C9.7487 38.7083 9.15625 38.1159 9.15625 37.3542V23.5586L24.7292 10.694ZM49.3581 19.4115C49.612 19.5807 49.7813 19.9193 49.7813 20.1732C49.7813 20.4271 49.6966 20.681 49.5273 20.8503L47.3268 23.474C47.1576 23.7279 46.9036 23.8125 46.5651 23.8125C46.3112 23.8125 46.0573 23.7279 45.888 23.5586L25.9987 7.22396C25.8294 7.05469 25.5755 6.97005 25.4062 6.97005C25.1523 6.97005 24.8984 7.05469 24.7292 7.22396L4.83984 23.5586C4.67057 23.7279 4.41666 23.8125 4.16276 23.8125C3.82422 23.8125 3.57031 23.7279 3.40104 23.474L1.20052 20.8503C1.11588 20.681 0.946613 20.4271 0.946613 20.1732C0.946613 19.9193 1.11588 19.5807 1.36979 19.4115L22.7826 1.72265C23.4596 1.21484 24.3906 0.8763 25.4062 0.8763C26.3372 0.8763 27.2682 1.21484 27.9453 1.72265L35.5625 7.98568V1.89193C35.5625 1.29948 35.9857 0.8763 36.5781 0.8763H41.3177C41.8255 0.8763 42.3333 1.29948 42.3333 1.89193V13.5716L49.3581 19.4115Z" fill="#7B1F1F"/>
</svg>
