<svg width="45" height="45" viewBox="0 0 45 45" fill="none" xmlns="http://www.w3.org/2000/svg">
<path d="M42.4648 3.19922C43.3958 3.45312 44.0729 4.21484 44.0729 5.14583C44.0729 26.8971 26.4688 44.4167 4.80209 44.4167C3.78646 44.4167 3.02474 43.8242 2.77084 42.8932L0.739586 34.0911C0.570315 33.1602 0.993492 32.1445 1.92448 31.7214L11.4036 27.6589C12.25 27.3203 13.181 27.5742 13.7734 28.2513L18.0052 33.4141C24.6068 30.2826 29.9388 24.8659 32.9857 18.4336L27.8229 14.2018C27.1458 13.6094 26.8919 12.6784 27.2305 11.832L31.293 2.35286C31.7162 1.42187 32.7318 0.91406 33.6628 1.16797L42.4648 3.19922Z" fill="#7B1F1F"/>
</svg>
